HIERARCHY
ROOT Hips
{
  OFFSET 90.7885 88.945 -76.2838
  CHANNELS 6 Xposition Yposition Zposition Zrotation Xrotation Yrotation
  JOINT LeftUpLeg
  {
    OFFSET 8.64259 1.95398 -2.38835
    CHANNELS 3 Zrotation Xrotation Yrotation
    JOINT LeftLeg
    {
      OFFSET 43.7702 0 0
      CHANNELS 3 Zrotation Xrotation Yrotation
      JOINT LeftFoot
      {
        OFFSET 40.6238 0 0
        CHANNELS 3 Zrotation Xrotation Yrotation
        JOINT LeftToeBase
        {
          OFFSET 12.7242 0 0
          CHANNELS 3 Zrotation Xrotation Yrotation
          End Site
          {
            OFFSET 0 0 0
          }
        }
      }
    }
  }
  JOINT RightUpLeg
  {
    OFFSET -8.2249 1.95398 -2.59336
    CHANNELS 3 Zrotation Xrotation Yrotation
    JOINT RightLeg
    {
      OFFSET 43.5653 0 0
      CHANNELS 3 Zrotation Xrotation Yrotation
      JOINT RightFoot
      {
        OFFSET 40.6238 0 0
        CHANNELS 3 Zrotation Xrotation Yrotation
        JOINT RightToeBase
        {
          OFFSET 12.7242 0 0
          CHANNELS 3 Zrotation Xrotation Yrotation
          End Site
          {
            OFFSET 0 0 0
          }
        }
      }
    }
  }
  JOINT Spine
  {
    OFFSET 0.165834 0.87714 6.61349
    CHANNELS 3 Zrotation Xrotation Yrotation
    JOINT Spine1
    {
      OFFSET 7.38963 1.71661e-005 0
      CHANNELS 3 Zrotation Xrotation Yrotation
      JOINT Spine2
      {
        OFFSET 11.9445 1.14441e-005 0
        CHANNELS 3 Zrotation Xrotation Yrotation
        JOINT Spine3
        {
          OFFSET 14.7254 4.19617e-005 0
          CHANNELS 3 Zrotation Xrotation Yrotation
          JOINT Spine4
          {
            OFFSET 10.9679 0 0
            CHANNELS 3 Zrotation Xrotation Yrotation
            JOINT RightShoulder
            {
              OFFSET 2.46616 -1.6653 3.69651
              CHANNELS 3 Zrotation Xrotation Yrotation
              JOINT RightArm
              {
                OFFSET 13.0012 0 0
                CHANNELS 3 Zrotation Xrotation Yrotation
                JOINT RightForeArm
                {
                  OFFSET 28.7848 1.52588e-005 0
                  CHANNELS 3 Zrotation Xrotation Yrotation
                  JOINT RightHand
                  {
                    OFFSET 26.5688 1.52588e-005 0
                    CHANNELS 3 Zrotation Xrotation Yrotation
                    End Site
                    {
                      OFFSET 0 0 0
                    }
                  }
                }
              }
            }
            JOINT LeftShoulder
            {
              OFFSET 2.38034 -1.29275 -3.7523
              CHANNELS 3 Zrotation Xrotation Yrotation
              JOINT LeftArm
              {
                OFFSET 16.3182 6.10352e-005 0
                CHANNELS 3 Zrotation Xrotation Yrotation
                JOINT LeftForeArm
                {
                  OFFSET 27.0901 0 0
                  CHANNELS 3 Zrotation Xrotation Yrotation
                  JOINT LeftHand
                  {
                    OFFSET 24.5451 1.52588e-005 0
                    CHANNELS 3 Zrotation Xrotation Yrotation
                    End Site
                    {
                      OFFSET 0 0 0
                    }
                  }
                }
              }
            }
            JOINT Neck
            {
              OFFSET 5.0226 -0.0266342 0
              CHANNELS 3 Zrotation Xrotation Yrotation
              JOINT Head
              {
                OFFSET 6.69363 2.86102e-005 0
                CHANNELS 3 Zrotation Xrotation Yrotation
                End Site
                {
                  OFFSET 0 0 0
                }
              }
            }
          }
        }
      }
    }
  }
}
MOTION
Frames:	12
Frame Time:	0.0416667
24.0448 95.2119 -76.1481 78.2341 -88.5529 84.7821 -177.822 30.1743 88.4339 -18.2824 9.76748 -2.11802 61.8408 1.76359 0.889014 20.4749 2.96011 -2.42266 165.843 -21.6253 78.157 -33.9224 -30.3275 -6.25348 60.6739 -0.675837 -0.561937 25.0708 -2.24667 5.68311 2.69903 7.44699 -90.2622 12.0112 5.24268 -1.09191 0.350205 5.18954 -1.32218 -22.2698 5.32771 0.538775 -2.25711 5.32771 0.538774 91.2447 -21.5276 -107.643 29.3631 -1.56031 -13.9003 -30.5945 2.31061 -105.294 -33.8698 2.19345 -18.1983 -86.409 -36.8765 81.8055 -37.3611 28.8529 50.2777 51.0742 -26.1056 -93.1035 2.10269 -0.586414 -17.0078 22.0933 -16.0432 -12.4098 -11.6241 -11.7313 3.18522 
25.4457 94.5006 -67.7406 125.385 -88.4132 134.91 -177.084 29.9228 90.9989 -20.8894 8.16569 -2.46885 61.2037 1.28226 1.67306 13.8978 1.09602 1.03098 167.976 -22.399 80.851 -40.0281 -20.5533 -5.36989 64.211 -2.5383 0.782966 25.6738 -1.61814 4.24392 2.31808 7.46183 -91.0694 11.9987 4.10449 -2.57928 0.331351 3.98704 -2.75754 -22.2497 4.68955 -1.22456 -2.23703 4.68956 -1.22458 90.5557 -17.4687 -111.34 33.1521 -8.44686 -11.1607 -27.7153 2.73826 -101.109 -32.9168 2.58252 -18.8948 -85.0991 -46.7182 85.6425 -31.1359 25.2043 47.415 52.9131 -25.2319 -93.9755 2.29531 -0.565008 -15.9725 23.8433 -11.1656 -4.82056 -14.3649 -9.12303 0.045165 
26.985 93.2443 -59.4694 139.772 -87.8099 150.388 -174.589 31.7123 91.2856 -32.1017 7.43467 -4.59832 58.5316 -0.502194 8.27407 15.9839 8.67067 -7.88861 169.879 -19.1924 82.2444 -51.4029 -11.4101 -5.15318 68.9048 -5.12826 -1.71552 21.3457 -1.31057 4.12061 2.3626 7.49965 -90.7681 11.9164 4.33623 -1.99904 0.25081 4.24406 -2.18818 -22.3404 4.73615 -0.600871 -2.32773 4.73615 -0.600877 89.7186 -25.5035 -109.152 33.2409 -12.9746 -8.56615 -28.6801 2.18392 -97.0908 -30.6735 2.74867 -20.8292 -86.511 -42.7334 82.7431 -30.5337 19.3611 40.9155 54.7565 -22.6688 -94.1369 4.38748 -0.727137 -15.0995 23.1028 -12.7842 -12.2544 -13.1634 -8.59829 3.98959 
28.579 91.7692 -51.7224 133.524 -87.1709 142.588 -171.175 32.9374 88.3413 -47.207 9.1239 -6.03441 71.1954 5.46835 8.13306 6.7981 9.15776 -6.13563 172.25 -12.0099 82.1107 -66.5626 -2.51612 -5.21046 73.5877 -7.96689 -4.19807 13.1009 -1.89102 6.00605 1.91208 7.58845 -90.4851 11.723 3.57537 -1.34365 0.0561665 3.51277 -1.49988 -22.5183 3.81368 -0.205535 -2.50563 3.81368 -0.205533 88.8356 -28.2002 -109.834 34.9938 -15.65 -4.53318 -32.7588 0.661327 -90.7601 -29.264 2.05693 -20.2475 -87.1203 -46.774 82.4924 -24.6302 13.0653 33.2518 56.7237 -22.0425 -96.3158 4.01443 -0.670261 -14.7235 22.4072 -10.9709 -14.4327 -12.1634 -6.20896 4.74458 
30.3925 89.7079 -44.5108 128.915 -85.0939 132.484 -169.282 28.2396 82.2286 -53.0289 8.72127 -6.71536 78.5933 9.18077 6.03147 9.80462 7.79232 -5.4163 175.098 -4.33484 78.6146 -83.0408 3.10974 -5.28952 80.4036 -11.3266 -4.6012 9.80731 -1.43876 5.54305 1.25415 8.02511 -89.7524 10.8253 2.61171 0.253947 -0.843035 2.62035 0.138667 -23.3968 2.41455 1.02757 -3.38418 2.41454 1.02755 87.8737 -31.3503 -110.361 36.2029 -15.7879 -0.472671 -32.2536 -3.32417 -86.501 -30.9028 1.63594 -17.8355 -87.5348 -51.2082 82.6267 -18.0188 8.40715 19.6316 55.1532 -21.2263 -98.5386 1.27051 -0.422095 -14.8449 25.4255 -8.77791 -14.8525 -12.5966 -3.35951 3.14063 
32.3813 88.0589 -37.7082 122.403 -83.8082 122.22 -168.384 23.0721 78.5385 -55.3531 10.3873 -8.25887 83.8581 12.2291 7.68282 13.6521 10.6104 -9.4621 -178.179 4.69773 76.6029 -96.7376 1.31857 -4.41333 84.8108 -13.6336 -4.74485 10.0168 -1.54808 5.69406 0.672267 8.24736 -89.1624 10.3658 1.72283 1.51382 -1.30485 1.78778 1.43653 -23.8379 1.18831 1.96152 -3.82528 1.18831 1.96153 87.5575 -32.3446 -110.543 40.0256 -12.4498 6.16001 -33.0348 -4.03728 -84.8964 -29.3023 1.72225 -19.4784 -87.4636 -51.4824 82.7812 -14.7451 5.44014 4.01389 51.136 -20.1299 -100.326 1.26721 -0.41979 -14.705 28.3438 -6.44519 -15.614 -13.9687 -0.429683 3.25854 
34.096 87.3067 -30.9472 109.208 -84.1081 109.654 -168.338 19.7968 79.5189 -57.2716 10.3449 -8.86809 90.7344 14.2529 3.16038 8.31058 9.53056 -6.68886 -169.317 16.0354 78.066 -105.075 -0.652429 -3.17545 86.4225 -14.4048 -3.71352 9.62216 -2.1378 6.65855 0.288919 8.16708 -89.1257 10.5307 0.977124 1.65126 -1.14089 1.04885 1.60666 -23.6686 0.435771 1.86851 -3.65595 0.435773 1.8685 88.7239 -31.2372 -108.767 44.7094 -11.045 14.1551 -31.0976 -2.61413 -84.8464 -29.2268 2.04167 -20.1456 -87.5078 -50.4061 82.5336 -12.9386 1.23184 -10.4569 49.8181 -19.9576 -102.209 -0.136111 -0.332428 -16.5463 28.3846 -2.77246 -15.178 -13.2347 2.88496 3.90871 
35.7032 87.0311 -23.8135 90.3502 -81.3446 93.8041 -168.758 15.7692 82.9669 -56.6685 12.2408 -8.15248 93.9644 15.1754 1.41424 12.607 10.2572 -8.7484 -166.023 27.6033 81.263 -107.163 2.30773 -2.53061 88.2852 -15.1046 -3.28739 11.1664 -1.94881 6.24127 -0.430933 8.00198 -89.3977 10.8707 -0.5795 1.25416 -0.80084 -0.523734 1.27844 -23.3328 -0.929597 1.02206 -3.32014 -0.929589 1.02205 90.1249 -30.6794 -106.258 47.0434 -11.6042 21.5359 -31.1763 -0.945121 -85.4901 -27.1876 2.2281 -21.9684 -87.312 -48.1272 82.4387 -10.2761 -2.80061 -22.7002 46.7611 -19.6661 -104.228 1.84396 -0.555925 -17.0831 28.6103 0.445465 -16.0945 -15.1915 6.10765 5.64505 
38.1051 88.0623 -16.1107 87.6902 -75.8621 93.7352 -170.403 9.30897 86.2058 -53.1444 15.9583 -6.25856 90.9467 14.3309 2.67425 18.6627 11.163 -11.7754 -167.292 34.8824 83.5369 -102.254 7.05072 -2.82192 90.8784 -15.4885 -1.08194 12.2404 -1.26312 5.04196 -1.42255 8.0218 -89.7466 10.8407 -2.71531 0.758366 -0.827681 -2.6793 0.877216 -23.3856 -2.81759 -0.0934025 -3.37295 -2.81759 -0.0934023 90.3311 -30.2964 -105.993 47.0365 -10.8593 29.4262 -34.2597 -1.6744 -87.2529 -27.9256 2.12083 -21.9939 -87.4753 -42.5963 81.1267 -9.14647 -6.37322 -28.9674 41.8413 -19.0299 -106.735 2.06043 -0.575379 -16.5344 28.5834 4.17873 -16.7893 -16.2368 9.71184 7.11146 
41.1552 89.8703 -7.74914 87.9542 -70.3244 96.2879 -171.942 1.34577 89.393 -46.418 19.2365 -3.60585 81.6697 10.8558 6.09861 33.499 12.8652 -21.0064 -169.81 38.0915 86.2556 -92.5281 7.82368 -3.59645 90.5203 -15.2985 -2.34078 12.7566 -1.336 5.11299 -2.33689 8.23995 -90.2787 10.3979 -4.783 -0.134817 -1.26419 -4.7843 0.0763074 -23.8645 -4.5209 -1.56905 -3.85182 -4.52089 -1.56904 91.529 -27.8221 -104.479 46.5748 -9.9615 35.0244 -36.0893 -0.435032 -86.0142 -26.9761 2.26977 -23.8485 -87.1975 -36.0553 80.195 -11.9381 -9.66155 -32.3748 43.3127 -20.0814 -108.59 5.95868 -0.599015 -11.3431 30.9908 7.62361 -15.4064 -17.8951 12.3975 8.95446 
44.6402 92.1247 1.09266 87.2273 -66.7048 98.4486 -172.191 -7.2649 93.3718 -36.0554 23.4803 -0.849554 68.8024 4.82014 7.81697 44.2154 10.3766 -23.4718 -172.457 39.2583 89.6486 -79.0943 7.82969 -4.33113 87.1986 -13.2671 -1.46202 11.3972 -0.537911 3.95019 -2.94002 8.43335 -90.9451 9.97722 -6.28879 -1.35864 -1.67885 -6.34247 -1.07949 -24.3103 -5.58901 -3.191 -4.29765 -5.589 -3.191 92.2314 -25.778 -103.745 44.7494 -8.86382 39.4937 -37.4747 -0.688624 -86.3024 -27.1292 2.48761 -25.3397 -86.8497 -31.8899 79.8211 -12.765 -11.2448 -33.7878 36.5114 -18.2092 -110.954 5.10495 -0.814223 -15.3838 34.5534 10.7228 -12.5384 -21.1643 14.0262 10.4428 
48.2917 93.8694 10.0512 83.2488 -65.672 97.5384 -171.552 -12.8073 96.7033 -28.0135 25.4484 0.985568 57.9127 -0.607824 6.25522 35.1709 9.57369 -17.2996 -173.485 39.5381 92.0941 -63.3968 1.62455 -5.03254 83.6141 -11.9667 -1.40226 14.9235 -0.423377 3.30451 -3.07496 8.35801 -91.6327 10.0823 -6.87103 -2.66696 -1.57254 -6.98168 -2.36079 -24.1957 -5.75182 -4.61275 -4.18309 -5.7518 -4.61275 92.6706 -23.2351 -103.738 43.8135 -7.26691 44.3398 -37.423 -1.05754 -86.2324 -28.4364 2.87139 -26.1216 -87.6455 -28.9429 77.5318 -10.2773 -12.8628 -33.1605 32.778 -17.2147 -112.449 5.81694 -0.880688 -15.3737 35.9295 13.5287 -8.76595 -23.8347 14.7975 10.9168 
